<svg width="19" height="16" viewBox="0 0 19 16" fill="none" xmlns="http://www.w3.org/2000/svg">
<g id="Email">
<g id="Icon">
<path d="M4.95373 0.771618C8.07887 0.499956 11.2217 0.499955 14.3468 0.771618L15.8525 0.902502C16.8548 0.989632 17.7133 1.58748 18.1581 2.44266C18.215 2.55206 18.1723 2.68452 18.0675 2.74943L11.8205 6.6166C10.4807 7.446 8.79131 7.4634 7.43472 6.66178L1.14601 2.94572C1.04441 2.88569 0.997771 2.7621 1.04356 2.65333C1.45048 1.6867 2.36533 0.996622 3.44807 0.902502L4.95373 0.771618Z" fill="#6C5FBC"/>
<path d="M1.03844 4.61919C0.882951 4.52731 0.684551 4.62618 0.666426 4.80588C0.41346 7.31389 0.474684 9.84564 0.850101 12.3422C1.04801 13.6583 2.12216 14.6673 3.44807 14.7825L4.95373 14.9134C8.07887 15.1851 11.2217 15.1851 14.3468 14.9134L15.8525 14.7825C17.1784 14.6673 18.2525 13.6583 18.4505 12.3422C18.8368 9.77289 18.8904 7.1663 18.6112 4.58668C18.5916 4.40572 18.3899 4.30866 18.2351 4.40447L12.6076 7.88814C10.795 9.01026 8.50933 9.0338 6.67394 7.94925L1.03844 4.61919Z" fill="#6C5FBC"/>
</g>
</g>
</svg>
