<svg width="41" height="41" viewBox="0 0 41 41" fill="none" xmlns="http://www.w3.org/2000/svg">
<g id="Bookmark">
<circle id="BG" cx="20.5875" cy="20.2525" r="20.0426" fill="#DBD9EE"/>
<path id="Book Mark" d="M24.9765 10.8844C22.0749 10.3979 19.097 10.3979 16.1954 10.8844C15.1354 11.0621 14.2912 11.8759 14.0787 12.9311C13.1049 17.7651 13.0518 22.7393 13.9221 27.593L14.2764 29.5691C14.3856 30.1785 15.1285 30.422 15.5773 29.9957L19.8539 25.9328C20.2641 25.5431 20.9078 25.5431 21.318 25.9328L25.5947 29.9957C26.0435 30.422 26.7863 30.1785 26.8956 29.5691L27.2499 27.593C28.1201 22.7393 28.067 17.7651 27.0933 12.9311C26.8807 11.8759 26.0365 11.0621 24.9765 10.8844Z" fill="#6C5FBC"/>
</g>
</svg>
