<svg width="19" height="15" viewBox="0 0 19 15" fill="none" xmlns="http://www.w3.org/2000/svg">
<g id="Email">
<path id="Icon" fill-rule="evenodd" clip-rule="evenodd" d="M0.634902 4.12746C0.363188 6.53866 0.375299 9.31955 0.753393 11.721C0.962601 13.0497 2.09805 14.0684 3.49963 14.1847L4.96442 14.3063C8.01872 14.5599 11.0903 14.5599 14.1446 14.3063L15.6094 14.1847C17.011 14.0684 18.1464 13.0497 18.3556 11.721C18.7337 9.31954 18.7458 6.53881 18.4741 4.12761C18.439 3.84807 18.3995 3.56891 18.3556 3.29022C18.1464 1.96147 17.011 0.942812 15.6094 0.826446L14.1446 0.704833C11.0903 0.451253 8.01872 0.451254 4.96442 0.704833L3.49963 0.826446C2.09805 0.942812 0.962601 1.96147 0.753393 3.29022C0.709522 3.56886 0.670024 3.84797 0.634902 4.12746ZM5.09042 2.08914C8.06087 1.84252 11.0481 1.84252 14.0186 2.08914L15.4834 2.21075C16.215 2.2715 16.8077 2.80324 16.9169 3.49685C16.9283 3.56888 16.9393 3.64094 16.95 3.71304L11.5563 6.57495C10.3114 7.23554 8.79756 7.23554 7.55259 6.57495L2.15898 3.71307C2.16971 3.64096 2.18074 3.56889 2.19208 3.49685C2.30129 2.80324 2.89399 2.2715 3.62563 2.21075L5.09042 2.08914ZM17.1281 5.20813C17.3162 7.30887 17.2458 9.42544 16.9169 11.5143C16.8077 12.2079 16.215 12.7397 15.4834 12.8004L14.0186 12.922C11.0481 13.1687 8.06087 13.1687 5.09042 12.922L3.62563 12.8004C2.894 12.7397 2.30129 12.2079 2.19208 11.5143C1.8632 9.42545 1.79282 7.30889 1.98095 5.20817L6.84604 7.78961C8.53042 8.68335 10.5785 8.68335 12.2629 7.78961L17.1281 5.20813Z" fill="#A2A3A6"/>
</g>
</svg>
