<svg width="16" height="20" viewBox="0 0 16 20" fill="none" xmlns="http://www.w3.org/2000/svg">
<g id="Icon">
<path d="M6.26445 14.2333C6.26445 13.4135 6.92906 12.7489 7.7489 12.7489C8.56873 12.7489 9.23334 13.4135 9.23334 14.2333C9.23334 15.0531 8.56873 15.7177 7.7489 15.7177C6.92906 15.7177 6.26445 15.0531 6.26445 14.2333Z" fill="#A2A3A6"/>
<path fill-rule="evenodd" clip-rule="evenodd" d="M3.41595 8.88647L3.10378 6.07693C3.06376 5.71673 3.06376 5.3532 3.10378 4.993L3.12631 4.79022C3.36529 2.63937 5.05618 0.937543 7.20544 0.684689C7.56648 0.642213 7.93126 0.642213 8.2923 0.684689C10.4416 0.937544 12.1325 2.63937 12.3714 4.79022L12.394 4.993C12.434 5.3532 12.434 5.71673 12.394 6.07693L12.0818 8.88646L12.7613 8.94071C13.8328 9.02625 14.7077 9.83171 14.8814 10.8925C15.2437 13.105 15.2437 15.3616 14.8814 17.5741C14.7077 18.6349 13.8328 19.4403 12.7613 19.5259L11.2807 19.6441C8.92991 19.8318 6.56793 19.8318 4.21718 19.6441L2.73657 19.5259C1.66507 19.4403 0.790129 18.6349 0.616433 17.5741C0.254158 15.3616 0.254158 13.105 0.616433 10.8925C0.790129 9.83171 1.66507 9.02625 2.73657 8.94071L3.41595 8.88647ZM7.37889 2.15897C7.6247 2.13005 7.87305 2.13005 8.11886 2.15897C9.58215 2.33112 10.7334 3.48978 10.8961 4.95415L10.9186 5.15693C10.9465 5.40818 10.9465 5.66175 10.9186 5.913L10.6008 8.77348C8.70147 8.65118 6.79627 8.65118 4.89698 8.77349L4.57914 5.913C4.55123 5.66175 4.55123 5.40818 4.57914 5.15693L4.60168 4.95415C4.76438 3.48978 5.91559 2.33112 7.37889 2.15897ZM11.1625 10.3022C8.89041 10.1209 6.60744 10.1209 4.33531 10.3022L2.8547 10.4204C2.46386 10.4516 2.14473 10.7454 2.08137 11.1324C1.74511 13.186 1.74511 15.2806 2.08137 17.3342C2.14473 17.7212 2.46386 18.015 2.8547 18.0462L4.33531 18.1644C6.60744 18.3457 8.89041 18.3457 11.1625 18.1644L12.6431 18.0462C13.034 18.015 13.3531 17.7212 13.4165 17.3342C13.7527 15.2806 13.7527 13.186 13.4165 11.1324C13.3531 10.7454 13.034 10.4516 12.6431 10.4204L11.1625 10.3022Z" fill="#A2A3A6"/>
</g>
</svg>
