<svg width="17" height="20" viewBox="0 0 17 20" fill="none" xmlns="http://www.w3.org/2000/svg">
<g id="User Icon">
<g id="Icon">
<path fill-rule="evenodd" clip-rule="evenodd" d="M4.09173 5.46047C4.09173 2.94794 6.12854 0.911133 8.64107 0.911133C11.1536 0.911133 13.1904 2.94794 13.1904 5.46047C13.1904 7.973 11.1536 10.0098 8.64107 10.0098C6.12854 10.0098 4.09173 7.973 4.09173 5.46047ZM8.64107 2.51678C7.01531 2.51678 5.69738 3.83472 5.69738 5.46047C5.69738 7.08623 7.01531 8.40416 8.64107 8.40416C10.2668 8.40416 11.5848 7.08623 11.5848 5.46047C11.5848 3.83472 10.2668 2.51678 8.64107 2.51678Z" fill="#A2A3A6"/>
<path fill-rule="evenodd" clip-rule="evenodd" d="M4.35934 13.2211C3.02917 13.2211 1.95086 14.2994 1.95086 15.6296V16.9016C1.95086 16.9209 1.9649 16.9374 1.98401 16.9406C6.39286 17.6604 10.8893 17.6604 15.2981 16.9406C15.3172 16.9374 15.3313 16.9209 15.3313 16.9016V15.6296C15.3313 14.2994 14.253 13.2211 12.9228 13.2211H12.5579C12.5297 13.2211 12.5017 13.2256 12.4749 13.2343L11.5484 13.5368C9.65925 14.1537 7.62288 14.1537 5.73376 13.5368L4.80728 13.2343C4.78046 13.2256 4.75243 13.2211 4.72421 13.2211H4.35934ZM0.345215 15.6296C0.345215 13.4126 2.1424 11.6155 4.35934 11.6155H4.72421C4.9217 11.6155 5.11795 11.6467 5.30568 11.708L6.23215 12.0105C7.79743 12.5216 9.48471 12.5216 11.05 12.0105L11.9765 11.708C12.1642 11.6467 12.3604 11.6155 12.5579 11.6155H12.9228C15.1397 11.6155 16.9369 13.4126 16.9369 15.6296V16.9016C16.9369 17.7078 16.3526 18.3953 15.5568 18.5252C10.9766 19.273 6.30549 19.273 1.72529 18.5252C0.929546 18.3953 0.345215 17.7078 0.345215 16.9016V15.6296Z" fill="#A2A3A6"/>
</g>
</g>
</svg>
